HIERARCHY
ROOT Hips
{
    OFFSET 0.000000 0.000000 0.000000
    CHANNELS 6 Xposition Yposition Zposition Zrotation Xrotation Yrotation
    JOINT Spine
    {
        OFFSET -0.000000 14.517291 0.000000
        CHANNELS 3 Zrotation Xrotation Yrotation
        JOINT Spine1
        {
            OFFSET -0.000000 37.558300 0.000000
            CHANNELS 3 Zrotation Xrotation Yrotation
            JOINT Neck
            {
                OFFSET -0.000000 37.404057 3.400369
                CHANNELS 3 Zrotation Xrotation Yrotation
                JOINT Head
                {
                    OFFSET -0.000000 24.785618 -3.540803
                    CHANNELS 3 Zrotation Xrotation Yrotation
                    End Site
                    {
                        OFFSET -0.000000 35.408028 0.000000
                    }
                }
            }
            JOINT LeftShoulder
            {
                OFFSET 6.992933 33.973492 -0.192664
                CHANNELS 3 Zrotation Xrotation Yrotation
                JOINT LeftArm
                {
                    OFFSET 21.527611 0.000000 0.000000
                    CHANNELS 3 Zrotation Xrotation Yrotation
                    JOINT LeftForeArm
                    {
                        OFFSET 56.353916 0.000000 0.000000
                        CHANNELS 3 Zrotation Xrotation Yrotation
                        JOINT LeftHand
                        {
                            OFFSET 47.774071 0.000000 0.000000
                            CHANNELS 3 Zrotation Xrotation Yrotation
                            End Site
                            {
                                OFFSET 26.556021 0.000000 0.000000
                            }
                        }
                    }
                }
            }
            JOINT RightShoulder
            {
                OFFSET -7.065357 33.973492 -0.192664
                CHANNELS 3 Zrotation Xrotation Yrotation
                JOINT RightArm
                {
                    OFFSET -21.527611 0.000000 0.000000
                    CHANNELS 3 Zrotation Xrotation Yrotation
                    JOINT RightForeArm
                    {
                        OFFSET -56.353916 0.000000 0.000000
                        CHANNELS 3 Zrotation Xrotation Yrotation
                        JOINT RightHand
                        {
                            OFFSET -47.774071 0.000000 0.000000
                            CHANNELS 3 Zrotation Xrotation Yrotation
                            End Site
                            {
                                OFFSET -26.556021 0.000000 0.000000
                            }
                        }
                    }
                }
            }
        }
    }
    JOINT LeftUpLeg
    {
        OFFSET 17.704014 0.000000 0.000000
        CHANNELS 3 Zrotation Xrotation Yrotation
        JOINT LeftLeg
        {
            OFFSET -0.000000 -81.181816 0.000000
            CHANNELS 3 Zrotation Xrotation Yrotation
            JOINT LeftFoot
            {
                OFFSET -0.000000 -62.821102 0.000000
                CHANNELS 3 Zrotation Xrotation Yrotation
                JOINT LeftToeBase
                {
                    OFFSET -0.000000 -11.507608 26.556021
                    CHANNELS 3 Zrotation Xrotation Yrotation
                    End Site
                    {
                        OFFSET -0.000000 0.000000 7.081605
                    }
                }
            }
        }
    }
    JOINT RightUpLeg
    {
        OFFSET -17.704014 0.000000 0.000000
        CHANNELS 3 Zrotation Xrotation Yrotation
        JOINT RightLeg
        {
            OFFSET -0.000000 -81.181816 0.000000
            CHANNELS 3 Zrotation Xrotation Yrotation
            JOINT RightFoot
            {
                OFFSET -0.000000 -62.821102 0.000000
                CHANNELS 3 Zrotation Xrotation Yrotation
                JOINT RightToeBase
                {
                    OFFSET -0.000000 -11.507608 26.556021
                    CHANNELS 3 Zrotation Xrotation Yrotation
                    End Site
                    {
                        OFFSET -0.000000 0.000000 7.081605
                    }
                }
            }
        }
    }
}
MOTION
Frames:    8
Frame Time:    0.008333
18.997595    153.937759    -106.084824    1.250285    -7.326375    40.003448    -2.453185    0.643767    -0.938318    -2.696177    2.698011    -0.254540    3.322503    -0.788526    -11.869491    6.033849    4.993479    -12.288301    4.792773    8.341479    -18.151056    -27.882448    22.514420    -52.867580    -5.018322    -7.289179    -106.041183    7.635167    -14.480538    -9.741254    -5.169859    1.668038    -1.395321    27.563950    -18.763105    50.291752    -22.116634    -22.092527    69.949142    -11.625071    -10.944148    38.843731    16.873631    -1.382064    0.184062    -15.364978    38.432491    -17.388311    8.539771    -29.291302    45.372311    0.000000    0.000000    0.000000    -18.998035    -15.467429    -13.236159    12.790604    31.788794    -13.707111    6.370325    1.103625    -17.783590    0.000000    0.000000    0.000000    
18.984354    153.938507    -106.075981    1.245922    -7.330796    40.026093    -2.449336    0.650773    -0.929604    -2.697509    2.693027    -0.251817    3.265169    -0.755768    -11.994086    6.229096    5.020655    -12.391043    4.802167    8.345440    -18.154263    -27.880259    22.505758    -52.869232    -5.026533    -7.262286    -106.035713    7.640306    -14.465872    -9.761777    -5.193909    1.668248    -1.386974    27.410805    -18.729942    50.379894    -22.028784    -21.702536    68.703491    -11.503891    -10.925713    38.973267    16.887516    -1.395707    0.158872    -15.373600    38.441906    -17.374628    8.520659    -29.297287    45.352367    0.000000    0.000000    0.000000    -18.991400    -15.465054    -13.235145    12.802341    31.797022    -13.726192    6.376524    1.099360    -17.798861    0.000000    0.000000    0.000000    
18.973324    153.938171    -106.073105    1.244544    -7.326580    40.045551    -2.447192    0.654236    -0.927667    -2.703447    2.686028    -0.251270    3.195495    -0.743601    -12.094924    6.436018    5.075093    -12.468212    4.798577    8.347331    -18.150465    -27.870636    22.500896    -52.858318    -5.041348    -7.239939    -106.040085    7.625517    -14.463507    -9.776937    -5.218718    1.673382    -1.362526    27.258167    -18.692545    50.463139    -21.914024    -21.342392    67.492004    -11.256536    -10.885767    39.014626    16.889820    -1.407750    0.133947    -15.383939    38.433506    -17.356070    8.510927    -29.303183    45.357082    0.000000    0.000000    0.000000    -18.996012    -15.474857    -13.250301    12.802932    31.820564    -13.730077    6.391658    1.097122    -17.809500    0.000000    0.000000    0.000000    
18.960281    153.940231    -106.064987    1.244074    -7.329315    40.062988    -2.458522    0.661842    -0.917159    -2.692621    2.683628    -0.248118    3.127764    -0.717944    -12.207619    6.653489    5.104888    -12.555471    4.804031    8.346515    -18.155241    -27.870770    22.502726    -52.853497    -5.043171    -7.224658    -106.030510    7.613366    -14.450204    -9.797146    -5.231568    1.685735    -1.344760    27.096390    -18.642252    50.544888    -21.811663    -21.036453    66.279182    -10.878905    -10.851159    39.152760    16.894024    -1.413738    0.128907    -15.363389    38.433022    -17.359476    8.493959    -29.298107    45.332539    0.000000    0.000000    0.000000    -18.995399    -15.475051    -13.241237    12.818589    31.834888    -13.735287    6.392825    1.088083    -17.826887    0.000000    0.000000    0.000000    
18.947275    153.941071    -106.056175    1.242769    -7.335562    40.079899    -2.454276    0.665048    -0.909914    -2.697876    2.690367    -0.245340    3.046467    -0.714692    -12.313462    6.885667    5.173414    -12.635191    4.809600    8.344237    -18.157570    -27.862181    22.494036    -52.839897    -5.057930    -7.197174    -106.027740    7.590991    -14.442244    -9.826048    -5.254531    1.682301    -1.323630    26.946207    -18.597000    50.610516    -21.688894    -20.675327    65.093758    -10.480002    -10.754557    39.347782    16.907555    -1.421057    0.119348    -15.362898    38.441574    -17.357077    8.476656    -29.300835    45.316029    0.000000    0.000000    0.000000    -18.987118    -15.473793    -13.235559    12.823052    31.843555    -13.760725    6.387026    1.101482    -17.824152    0.000000    0.000000    0.000000    
18.931870    153.939774    -106.047729    1.244237    -7.338610    40.101273    -2.465774    0.671867    -0.901508    -2.689786    2.691742    -0.242749    2.962741    -0.703304    -12.421371    7.130731    5.233777    -12.715050    4.809103    8.343033    -18.165421    -27.857248    22.492342    -52.828846    -5.075060    -7.174891    -106.026230    7.600633    -14.442757    -9.822441    -5.263515    1.692928    -1.312313    26.822712    -18.629272    50.702641    -21.506590    -20.203688    63.958469    -10.227990    -10.594326    39.376614    16.915524    -1.433142    0.114110    -15.350262    38.458370    -17.388920    8.472898    -29.301170    45.324509    0.000000    0.000000    0.000000    -18.984838    -15.472273    -13.234439    12.836349    31.858692    -13.781815    6.376637    1.094538    -17.828146    0.000000    0.000000    0.000000    
18.916004    153.938004    -106.039810    1.241397    -7.340764    40.121948    -2.467563    0.676438    -0.895757    -2.689822    2.689256    -0.240974    2.852082    -0.673461    -12.545327    7.412499    5.292688    -12.803758    4.809575    8.344702    -18.161545    -27.835459    22.495331    -52.829437    -5.083219    -7.160747    -106.018639    7.626304    -14.440999    -9.827773    -5.285067    1.710736    -1.300762    26.708668    -18.648714    50.788055    -21.312603    -19.778730    62.846977    -9.871141    -10.453025    39.552547    16.931166    -1.444618    0.101410    -15.361062    38.457726    -17.380894    8.460563    -29.303873    45.318302    0.000000    0.000000    0.000000    -18.980957    -15.473589    -13.230160    12.844088    31.874683    -13.770579    6.396481    1.076556    -17.863405    0.000000    0.000000    0.000000    
18.900322    153.934830    -106.029915    1.243565    -7.340219    40.141842    -2.481889    0.676673    -0.888362    -2.689122    2.693564    -0.238413    2.788095    -0.637077    -12.662347    7.636216    5.328543    -12.896565    4.820555    8.344696    -18.168976    -27.827532    22.495930    -52.820202    -5.083185    -7.151147    -106.005806    7.644473    -14.432516    -9.841974    -5.290938    1.713341    -1.291366    26.578033    -18.651037    50.858437    -21.154764    -19.292496    61.756451    -9.622928    -10.226541    39.479530    16.938593    -1.452611    0.099658    -15.351648    38.462334    -17.408936    8.470610    -29.294489    45.316269    0.000000    0.000000    0.000000    -18.983686    -15.476227    -13.225333    12.865843    31.892696    -13.796429    6.377253    1.059978    -17.872766    0.000000    0.000000    0.000000    
